Coordinates
version=1
nRows=16
nColumns=22
inDegrees=yes

Units are S.I. units (second, meters, Newtons, ...)
If the header above contains a line with 'inDegrees', this indicates whether rotational values are in degrees (yes) or radians (no).

endheader
time	pelvis_tilt	pelvis_list	pelvis_rotation	pelvis_tx	pelvis_ty	pelvis_tz	hip_flexion_r	hip_adduction_r	hip_rotation_r	knee_angle_r	ankle_angle_r	subtalar_angle_r	hip_flexion_l	hip_adduction_l	hip_rotation_l	knee_angle_l	ankle_angle_l	subtalar_angle_l	lumbar_extension	lumbar_bending	lumbar_rotation
      6.43000000	     -2.68377109	     -2.77123201	    -81.45822789	      0.61060986	      1.00022385	      0.02373635	     -3.72141841	     10.92505067	     11.05638515	    -17.16292707	     15.52054927	    -11.00430813	     20.20794267	     -2.64948483	     24.75296071	    -13.19055269	      7.18798528	     12.25267376	    -15.48542940	      3.63895659	     11.78669645
      6.44000000	     -2.61131595	     -2.77974473	    -82.39697692	      0.61184574	      0.99959821	      0.03038881	     -4.11689547	     10.69769029	     11.83749440	    -17.42088584	     15.83488672	    -10.93661715	     19.92873842	     -2.58672698	     24.93490113	    -12.51766620	      7.26404433	     12.46512603	    -15.46577829	      3.49784589	     11.90289696
      6.45000000	     -2.57456278	     -2.77320854	    -83.33509652	      0.61304382	      0.99887598	      0.03711599	     -4.46755806	     10.50439077	     12.60494571	    -17.72439337	     16.18188284	    -10.87424263	     19.71241665	     -2.53342316	     24.90487527	    -12.14957976	      7.32824187	     12.60513237	    -15.41041000	      3.39735877	     12.00092825
      6.46000000	     -2.54359644	     -2.78169618	    -84.27689680	      0.61420170	      0.99813482	      0.04395540	     -4.82679281	     10.31246148	     13.35535425	    -18.04418876	     16.47978382	    -10.76762017	     19.50968673	     -2.46278675	     24.68082774	    -12.07238442	      7.43303498	     12.71438601	    -15.35640841	      3.30214574	     12.08681401
      6.47000000	     -2.53744976	     -2.78504873	    -85.20442891	      0.61536258	      0.99735175	      0.05087902	     -5.17174582	     10.13966170	     14.07152115	    -18.37475513	     16.74388842	    -10.60115770	     19.33300876	     -2.38960184	     24.33993849	    -12.23723717	      7.48826622	     12.77301848	    -15.28126349	      3.24227388	     12.12549172
      6.48000000	     -2.55675273	     -2.76281330	    -86.11651956	      0.61654297	      0.99648975	      0.05782689	     -5.46170628	      9.98771493	     14.73336103	    -18.74652841	     17.01543754	    -10.42389603	     19.20875997	     -2.31072047	     23.96096433	    -12.62989595	      7.43423971	     12.73541111	    -15.17322870	      3.21807171	     12.14732546
      6.49000000	     -2.58665551	     -2.71989052	    -87.00533898	      0.61776914	      0.99558226	      0.06480236	     -5.70947094	      9.84070958	     15.31870610	    -19.14584270	     17.27664776	    -10.26676786	     19.12290910	     -2.21500797	     23.59033173	    -13.20354131	      7.23387378	     12.62857613	    -15.03895048	      3.21540404	     12.14722688
      6.50000000	     -2.63036975	     -2.65739135	    -87.87527594	      0.61902261	      0.99466935	      0.07179552	     -5.91012160	      9.70706712	     15.84317448	    -19.58398813	     17.48492681	    -10.06652261	     19.06419617	     -2.11898267	     23.24536665	    -13.89655815	      6.86123001	     12.45490326	    -14.88330676	      3.23945199	     12.10653443
      6.51000000	     -2.67044231	     -2.57338098	    -88.72095947	      0.62030781	      0.99376891	      0.07878478	     -6.05096080	      9.57310698	     16.29570883	    -20.08108090	     17.66266076	     -9.83408845	     19.04092796	     -2.00685918	     22.93907012	    -14.67979949	      6.32652847	     12.23557143	    -14.70860211	      3.27018346	     12.02508564
      6.52000000	     -2.71228331	     -2.46083509	    -89.54392853	      0.62158151	      0.99288415	      0.08575133	     -6.10828193	      9.45441909	     16.68389988	    -20.66909966	     17.82520380	     -9.51448147	     19.07526358	     -1.89406452	     22.63535467	    -15.53582258	      5.70821799	     11.95927925	    -14.50910239	      3.31066216	     11.88081742
      6.53000000	     -2.72104607	     -2.34250187	    -90.33502128	      0.62290535	      0.99210452	      0.09272699	     -6.12504466	      9.30525014	     16.99012894	    -21.30816340	     17.93751458	     -9.17057218	     19.15817129	     -1.74081053	     22.29278121	    -16.46993840	      5.03648793	     11.73173254	    -14.30529272	      3.32474610	     11.74397871
      6.54000000	     -2.68555544	     -2.25585842	    -91.11325339	      0.62416450	      0.99152233	      0.09973117	     -6.12006594	      9.12673718	     17.24463334	    -22.04833008	     17.97530553	     -8.85211086	     19.21779844	     -1.56993220	     21.84404719	    -17.39689970	      4.41388083	     11.59029701	    -14.13942308	      3.28644998	     11.55083568
      6.55000000	     -2.63851381	     -2.17734188	    -91.85139253	      0.62541014	      0.99110317	      0.10676877	     -6.07986576	      8.94637718	     17.41699654	    -22.85273541	     17.94478287	     -8.39051392	     19.30978960	     -1.39929895	     21.30455045	    -18.37096693	      3.94238061	     11.44549654	    -13.97987570	      3.23403619	     11.34110895
      6.56000000	     -2.55543865	     -2.13948726	    -92.55740353	      0.62662088	      0.99093294	      0.11387029	     -6.02644328	      8.73911327	     17.51760955	    -23.74854581	     17.81026402	     -7.84092458	     19.34289758	     -1.21989391	     20.67854672	    -19.29326702	      3.67263532	     11.30054289	    -13.85837096	      3.13925829	     11.08642744
      6.57000000	     -2.46388867	     -2.13852455	    -93.23655578	      0.62778321	      0.99100543	      0.12100018	     -5.95826384	      8.53178881	     17.56866549	    -24.72524472	     17.60489930	     -7.21916201	     19.31282519	     -1.05852195	     19.98236200	    -20.15880250	      3.59430416	     11.12832185	    -13.77535205	      3.03025923	     10.82244723
      6.58000000	     -2.34555472	     -2.15605465	    -93.87855384	      0.62891538	      0.99130125	      0.12815623	     -5.83945714	      8.30152676	     17.53155809	    -25.79970699	     17.26715948	     -6.44844873	     19.20025155	     -0.89199784	     19.27915859	    -20.90471206	      3.73631044	     10.90282837	    -13.70439753	      2.88757551	     10.52481438
